<?xml version="1.0" encoding="UTF-8"?>
<!DOCTYPE svg PUBLIC "-//W3C//DTD SVG 1.1//EN" "http://www.w3.org/Graphics/SVG/1.1/DTD/svg11.dtd">
<!-- Creator: CorelDRAW X6 -->
<svg xmlns="http://www.w3.org/2000/svg" xml:space="preserve" width="210mm" height="50mm" version="1.1" style="shape-rendering:geometricPrecision; text-rendering:geometricPrecision; image-rendering:optimizeQuality; fill-rule:evenodd; clip-rule:evenodd"
viewBox="0 0 21000 5000"
 xmlns:xlink="http://www.w3.org/1999/xlink"
 xmlns:svg="http://www.w3.org/2000/svg">
 <defs>
  <style type="text/css">
   <![CDATA[
    .fil2 {fill:black}
    .fil1 {fill:#5E5E5E}
    .fil0 {fill:#D20233}
   ]]>
  </style>
 </defs>
 <g id="Ebene_x0020_1">
  <metadata id="CorelCorpID_0Corel-Layer"/>
  <g id="g6">
   <g id="g8">
    <path id="path10" class="fil0" d="M3844 2287l0 -1167 -223 0 0 467 -599 0 0 -467 -223 0 0 1167 223 0 0 -501 599 0 0 501 223 0zm1003 -412c0,-246 -179,-433 -414,-433 -235,0 -414,188 -414,433 0,248 179,435 414,435 235,0 414,-187 414,-435m-219 0c0,147 -89,267 -194,267 -106,0 -195,-120 -195,-267 0,-145 89,-265 195,-265 106,0 194,120 194,265m1077 355l-78 -172c-90,53 -142,71 -212,71 -127,0 -216,-101 -216,-248 0,-154 99,-263 239,-263 64,0 104,16 166,64l101 -161c-69,-41 -97,-53 -157,-67 -44,-9 -88,-14 -134,-14 -262,0 -437,179 -437,444 0,258 164,426 419,426 82,0 164,-16 241,-48 16,-7 39,-18 69,-32m877 57l0 -605c0,-156 -74,-233 -223,-233 -104,0 -186,44 -285,152l0 -603 -212 0 0 1289 212 0 0 -495 28 -30c92,-99 154,-143 198,-143 51,0 69,37 69,140l0 529 212 0 0 0zm863 -766c-74,-42 -103,-53 -181,-69 -51,-11 -97,-16 -136,-16 -200,0 -334,104 -334,258 0,110 67,187 212,242l142 55c57,21 83,50 83,87 0,44 -47,71 -129,71 -30,0 -60,-5 -92,-16 -60,-20 -94,-35 -177,-87l-67 172c90,46 128,60 204,76 50,10 94,16 134,16 198,0 329,-99 329,-249 0,-72 -34,-147 -85,-182 -37,-28 -156,-81 -248,-113 -74,-26 -103,-50 -103,-87 0,-46 53,-78 134,-78 60,0 131,21 190,57 16,9 35,21 56,35l67 -172zm852 709l-78 -172c-90,53 -142,71 -212,71 -127,0 -216,-101 -216,-248 0,-154 99,-263 239,-263 64,0 104,16 166,64l101 -161c-69,-41 -97,-53 -157,-67 -44,-9 -88,-14 -134,-14 -262,0 -437,179 -437,444 0,258 164,426 419,426 81,0 164,-16 241,-48 16,-7 39,-18 69,-32m877 57l0 -605c0,-156 -75,-233 -223,-233 -105,0 -186,44 -285,152l0 -603 -212 0 0 1289 212 0 0 -495 28 -30c92,-99 154,-143 198,-143 51,0 69,37 69,140l0 529 212 0 0 0zm974 0l0 -822 -212 0 0 495 -28 30c-92,97 -154,143 -200,143 -50,0 -67,-39 -67,-140l0 -529 -212 0 0 605c0,156 74,232 223,232 104,0 186,-42 285,-152l0 138 212 0zm460 -1289l-211 0 0 1289 211 0 0 -1289zm921 1210l-78 -161c-76,48 -108,64 -157,78 -34,10 -66,14 -97,14 -78,0 -149,-39 -184,-99 -19,-34 -25,-62 -29,-131l545 0 0 -90c0,-223 -142,-377 -345,-377 -235,0 -412,196 -412,456 0,251 154,412 398,412 96,0 184,-19 271,-58 19,-9 49,-23 89,-44m-212 -432l-322 0c18,-111 81,-175 175,-175 99,0 142,50 147,175m1595 511l0 -189 -511 0 0 -311 400 0 0 -189 -400 0 0 -288 488 0 0 -189 -711 0 0 1167 734 0zm823 -766c-75,-42 -103,-53 -180,-69 -51,-11 -97,-16 -136,-16 -200,0 -334,104 -334,258 0,110 67,187 212,242l141 55c57,21 83,50 83,87 0,44 -48,71 -129,71 -30,0 -60,-5 -92,-16 -60,-20 -93,-35 -177,-87l-67 172c90,46 127,60 203,76 50,10 94,16 134,16 198,0 329,-99 329,-249 0,-72 -34,-147 -85,-182 -37,-28 -156,-81 -248,-113 -74,-26 -103,-50 -103,-87 0,-46 53,-78 134,-78 60,0 131,21 189,57 16,9 35,21 57,35l67 -172zm817 0c-74,-42 -103,-53 -180,-69 -51,-11 -97,-16 -136,-16 -200,0 -334,104 -334,258 0,110 67,187 212,242l141 55c57,21 83,50 83,87 0,44 -48,71 -129,71 -30,0 -60,-5 -92,-16 -60,-20 -94,-35 -177,-87l-67 172c90,46 127,60 203,76 50,10 94,16 134,16 198,0 329,-99 329,-249 0,-72 -34,-147 -85,-182 -37,-28 -156,-81 -248,-113 -74,-26 -103,-50 -103,-87 0,-46 53,-78 135,-78 60,0 131,21 189,57 16,9 35,21 57,35l67 -172zm407 -523l-210 0 0 1289 210 0 0 -1289zm479 171c0,-80 -53,-143 -118,-143 -66,0 -120,64 -120,143 0,80 55,143 120,143 65,0 118,-64 118,-143m-14 295l-210 0 0 822 210 0 0 -822zm985 822l0 -605c0,-156 -74,-233 -223,-233 -104,0 -186,44 -285,152l0 -136 -212 0 0 822 212 0 0 -495 28 -30c92,-99 154,-143 198,-143 51,0 69,37 69,140l0 529 212 0 0 0zm1029 -663l0 -159 -166 11 -122 0c-78,-26 -112,-34 -172,-34 -217,0 -352,120 -352,317 0,78 25,145 72,202 19,23 36,35 73,64 -23,18 -41,28 -51,37 -80,53 -108,90 -108,138 0,49 34,81 115,111 -96,81 -131,136 -131,200 0,124 136,207 338,207 276,0 474,-148 474,-354 0,-133 -76,-198 -237,-198l-288 0c-41,0 -55,-5 -55,-23 0,-21 26,-48 81,-88 27,5 39,5 60,5 216,0 361,-126 361,-313 0,-53 -9,-82 -37,-122l145 0 0 0zm-324 124c0,85 -60,152 -136,152 -76,0 -136,-67 -136,-150 0,-85 60,-156 134,-156 76,0 138,69 138,154m96 640c0,32 -23,69 -62,99 -50,41 -118,64 -182,64 -97,0 -173,-41 -173,-92 0,-21 14,-53 39,-94 5,-5 11,-16 18,-28l256 0c71,0 104,18 104,51m1065 -180l-78 -161c-76,48 -108,64 -157,78 -34,10 -66,14 -97,14 -78,0 -149,-39 -184,-99 -20,-34 -25,-62 -29,-131l545 0 0 -90c0,-223 -142,-377 -345,-377 -235,0 -412,196 -412,456 0,251 154,412 398,412 95,0 184,-19 271,-58 19,-9 49,-23 88,-44m-212 -432l-322 0c18,-111 81,-175 175,-175 99,0 142,50 147,175m1114 511l0 -605c0,-156 -74,-233 -223,-233 -104,0 -186,44 -285,152l0 -136 -212 0 0 822 212 0 0 -495 29 -30c92,-99 154,-143 198,-143 51,0 69,37 69,140l0 529 212 0 0 0z"/>
    <path id="path12" class="fil1" d="M3448 3925c-64,52 -143,79 -235,79 -92,0 -173,-27 -236,-79 -71,-58 -100,-127 -100,-239l0 -563 106 0 0 531c0,106 8,136 49,182 43,48 105,74 179,74 74,0 136,-26 179,-74 41,-45 49,-75 49,-182l0 -531 106 0 0 563c0,114 -27,180 -99,239z"/>
    <path id="path14" class="fil1" d="M4184 3980l0 -416c0,-39 -3,-52 -9,-69 -9,-20 -32,-31 -60,-31 -60,0 -123,44 -226,157l0 359 -97 0 0 -588 97 0 0 123c40,-45 52,-57 81,-80 44,-38 102,-59 157,-59 104,0 154,53 154,163l0 440 -97 0 0 0z"/>
    <path id="path16" class="fil1" d="M4562 3251c-35,0 -63,-28 -63,-64 0,-35 29,-64 63,-64 35,0 64,29 64,64 0,35 -29,64 -64,64m-49 142l97 0 0 588 -97 0 0 -588z"/>
    <polygon id="polygon18" class="fil1" points="5068,3997 4979,3997 4758,3392 4865,3392 5027,3868 5030,3892 5031,3870 5190,3392 5297,3392 "/>
    <path id="path20" class="fil1" d="M5489 3678c0,143 73,230 192,230 52,0 90,-14 153,-58l39 77c-87,54 -136,71 -213,71 -164,0 -274,-125 -274,-310 0,-187 110,-310 278,-310 138,0 227,98 227,244l0 57 -402 0 0 0zm169 -213c-82,0 -139,49 -161,140l288 0c-1,-91 -47,-140 -127,-140z"/>
    <path id="path22" class="fil1" d="M6343 3499c-20,-17 -30,-23 -42,-23 -36,0 -83,53 -139,155l0 350 -97 0 0 -588 97 0 0 106c73,-93 109,-122 153,-122 22,0 49,14 75,40l-48 82z"/>
    <path id="path24" class="fil1" d="M6702 3997c-25,0 -52,-3 -82,-8 -56,-10 -80,-19 -139,-49l40 -82c19,10 34,18 44,23 41,20 93,32 135,32 59,0 104,-32 104,-78 0,-14 -5,-31 -12,-40 -23,-34 -51,-50 -156,-93 -114,-48 -153,-88 -153,-160 0,-102 86,-166 223,-166 24,0 51,1 75,7 44,8 65,17 114,44l-48 79c-37,-23 -54,-31 -84,-39 -23,-6 -45,-10 -67,-10 -66,0 -109,30 -109,74 0,14 5,27 14,36 23,23 39,33 145,77 125,52 160,92 160,184 0,105 -76,169 -205,169z"/>
    <path id="path26" class="fil1" d="M7160 3251c-35,0 -63,-28 -63,-64 0,-35 29,-64 63,-64 35,0 64,29 64,64 0,35 -29,64 -64,64m-49 142l97 0 0 588 -97 0 0 -588z"/>
    <path id="path28" class="fil1" d="M7565 3997c-68,0 -113,-53 -113,-131l0 -392 -98 0 0 -57 98 -25 0 -171 97 0 0 171 156 0 0 82 -156 0 0 335 1 26c1,18 1,30 2,36 1,19 13,29 34,29 25,0 44,-10 86,-42l40 65c-69,57 -101,74 -148,74z"/>
    <path id="path30" class="fil1" d="M8032 4012c-27,73 -49,121 -82,173 -23,37 -40,62 -88,123l-78 -60c58,-65 78,-91 112,-152 32,-57 48,-92 82,-182l-218 -523 109 0 141 359 20 57 13 -57 121 -359 100 0 -231 620z"/>
    <path id="path32" class="fil1" d="M8948 3997c-159,0 -291,-142 -291,-310 0,-170 131,-310 291,-310 158,0 289,140 289,310 0,169 -131,310 -289,310m0 -533c-104,0 -184,99 -184,223 0,125 80,223 184,223 102,0 183,-99 183,-223 0,-125 -80,-223 -183,-223z"/>
    <path id="path34" class="fil1" d="M9780 3131c-42,-14 -66,-19 -96,-19 -100,0 -150,67 -150,208l0 73 139 0 0 82 -139 0 0 506 -97 0 0 -506 -99 0 0 -57 99 -25 0 -97c0,-167 99,-274 253,-274 49,0 84,8 130,28l-40 82z"/>
    <path id="path36" class="fil1" d="M10647 3980l-89 -253 -346 0 -88 253 -114 0 319 -881 114 0 318 881 -114 0zm-261 -742l-140 392 279 0 -139 -392z"/>
    <path id="path38" class="fil1" d="M11135 3995c-62,0 -103,-12 -140,-40l0 335 -97 0 0 -898 97 0 0 74c49,-57 119,-91 194,-91 145,0 246,120 246,294 0,190 -126,326 -300,326m37 -528c-35,0 -78,16 -114,40 -23,17 -37,30 -64,65l0 204c0,51 2,57 12,77 20,34 59,50 118,50 125,0 205,-91 205,-232 0,-118 -66,-204 -157,-204z"/>
    <path id="path40" class="fil1" d="M11853 3995c-62,0 -102,-12 -140,-40l0 335 -97 0 0 -898 97 0 0 74c49,-57 119,-91 193,-91 145,0 246,120 246,294 0,190 -126,326 -300,326m38 -528c-35,0 -78,16 -114,40 -23,17 -37,30 -64,65l0 204c0,51 1,57 12,77 19,34 58,50 118,50 125,0 205,-91 205,-232 0,-118 -66,-204 -157,-204z"/>
    <rect id="rect42" class="fil1" x="12329" y="3034" width="97.23" height="945.81"/>
    <path id="path44" class="fil1" d="M12708 3251c-35,0 -64,-28 -64,-64 0,-35 29,-64 64,-64 35,0 64,29 64,64 0,35 -29,64 -64,64m-49 142l97 0 0 588 -97 0 0 -588z"/>
    <path id="path46" class="fil1" d="M13040 3678c0,143 73,230 192,230 52,0 89,-14 153,-58l39 77c-87,54 -136,71 -213,71 -163,0 -274,-125 -274,-310 0,-187 110,-310 277,-310 138,0 227,98 227,244l0 57 -402 0 0 0zm169 -213c-82,0 -139,49 -161,140l288 0c-1,-91 -47,-140 -127,-140z"/>
    <path id="path48" class="fil1" d="M14000 3980l0 -74c-52,58 -121,91 -195,91 -144,0 -245,-121 -245,-295 0,-190 126,-326 300,-326 62,0 103,12 140,40l0 -383 99 0 0 946 -99 0zm0 -383c0,-45 -1,-58 -12,-78 -17,-33 -58,-49 -118,-49 -125,0 -205,90 -205,231 0,118 66,204 157,204 35,0 78,-14 114,-40 22,-16 36,-30 64,-64l0 -204z"/>
    <path id="path50" class="fil1" d="M15104 3269c-44,-26 -62,-35 -90,-44 -32,-10 -84,-18 -118,-18 -97,0 -164,48 -164,121 0,63 38,96 212,188 58,31 104,60 135,87 41,35 66,94 66,156 0,147 -109,239 -281,239 -59,0 -113,-11 -158,-29 -33,-13 -55,-26 -110,-64l55 -84c48,33 69,44 99,56 38,14 79,22 123,22 101,0 162,-48 162,-130 0,-25 -4,-45 -13,-61 -14,-26 -39,-51 -73,-70 -14,-8 -62,-32 -143,-77 -128,-69 -183,-136 -183,-224 0,-136 113,-227 283,-227 49,0 100,6 144,21 35,12 56,22 104,51l-49 88z"/>
    <path id="path52" class="fil1" d="M15758 3957c-48,26 -105,40 -164,40 -179,0 -301,-123 -301,-304 0,-186 127,-317 308,-317 30,0 58,4 87,12 39,10 57,19 97,48l-56 79c-45,-38 -79,-51 -132,-51 -118,0 -197,91 -197,223 0,135 79,219 205,219 57,0 93,-13 141,-49l51 77c-17,10 -30,18 -39,22z"/>
    <path id="path54" class="fil1" d="M15989 3251c-35,0 -64,-28 -64,-64 0,-35 29,-64 64,-64 35,0 64,29 64,64 0,35 -29,64 -64,64m-49 142l97 0 0 588 -97 0 0 -588z"/>
    <path id="path56" class="fil1" d="M16321 3678c0,143 73,230 192,230 52,0 89,-14 153,-58l39 77c-87,54 -136,71 -213,71 -163,0 -274,-125 -274,-310 0,-187 110,-310 278,-310 138,0 227,98 227,244l0 57 -402 0 0 0zm169 -213c-82,0 -139,49 -161,140l288 0c-1,-91 -47,-140 -127,-140z"/>
    <path id="path58" class="fil1" d="M17289 3980l0 -416c0,-39 -2,-52 -9,-69 -9,-20 -33,-31 -60,-31 -60,0 -123,44 -226,157l0 359 -98 0 0 -588 98 0 0 123c40,-45 52,-57 80,-80 44,-38 103,-59 157,-59 103,0 154,53 154,163l0 440 -97 0 0 0z"/>
    <path id="path60" class="fil1" d="M18027 3957c-48,26 -105,40 -163,40 -179,0 -301,-123 -301,-304 0,-186 128,-317 308,-317 30,0 58,4 87,12 39,10 57,19 97,48l-56 79c-45,-38 -79,-51 -132,-51 -118,0 -197,91 -197,223 0,135 79,219 205,219 57,0 93,-13 141,-49l50 77c-17,10 -30,18 -39,22z"/>
    <path id="path62" class="fil1" d="M18255 3678c0,143 73,230 192,230 52,0 89,-14 153,-58l39 77c-87,54 -136,71 -213,71 -164,0 -274,-125 -274,-310 0,-187 110,-310 278,-310 138,0 227,98 227,244l0 57 -402 0 0 0zm169 -213c-82,0 -139,49 -161,140l288 0c-1,-91 -47,-140 -127,-140z"/>
    <path id="path64" class="fil1" d="M19017 3997c-25,0 -52,-3 -82,-8 -56,-10 -80,-19 -139,-49l40 -82c19,10 34,18 44,23 42,20 93,32 135,32 60,0 104,-32 104,-78 0,-14 -5,-31 -12,-40 -23,-34 -51,-50 -156,-93 -114,-48 -153,-88 -153,-160 0,-102 86,-166 223,-166 25,0 50,1 75,7 44,8 65,17 114,44l-48 79c-38,-23 -54,-31 -84,-39 -24,-6 -46,-10 -68,-10 -66,0 -109,30 -109,74 0,14 5,27 14,36 23,23 39,33 145,77 125,52 160,92 160,184 0,105 -77,169 -205,169z"/>
    <polygon id="polygon66" class="fil2" points="2482,621 2043,621 2043,4380 2482,4380 2482,4496 1781,4496 1781,505 2482,505 "/>
   </g>
  </g>
 </g>
</svg>
